<svg xmlns="http://www.w3.org/2000/svg" viewBox="0 0 296 202" width="100" height="69"><path d="M41.1.2l-6 29.1C41.9 19.1 49.8 9.4 58.8.2zM49.5 61C42.5 76.6 39 92.4 39 108c0 12 2.1 23.4 6.3 33.9 3.6 9.1 8.8 17.5 15.3 24.8h29.1c-4.1-2.6-7.8-5.6-11.3-9-16.4-16.4-24.2-38.8-21.9-63.1 1.1-12 4.7-23.9 10.5-35.6 6-12 14.3-23.4 24.7-33.8 9.9-9.9 21-17.9 33.2-23.8.9-.4 1.8-.9 2.7-1.3H99.4C93 4.8 87 10.1 81.2 15.8 67.4 29.6 56.8 44.8 49.5 61z"/><path d="M86.7 38.9h14.2c.7-.8 1.5-1.6 2.3-2.3C118.3 21.5 137 11.8 156.3 9l1.8-8.8h-15.5c-16.7 5.3-33 15-47.1 29-3.1 3.1-6.1 6.4-8.8 9.7zm88.6 69.4c9.9-9.9 15.3-21.2 15.3-32 0-8.3-3.1-15.8-9.1-21.7-2.8-2.8-6.2-5-9.9-6.4l-1.9 9.3c1.9 1 3.6 2.3 5.1 3.8 5.2 5.2 7.7 12.3 7.1 20.1-.6 7.7-4.3 15.4-10.5 21.5-3.7 3.7-8.1 6.7-12.8 8.7l-1.8 8.7c6.6-2.4 13-6.5 18.5-12z"/><path d="M196.1 76.3c0 12.2-6 25-16.9 35.9-6.9 6.9-15 11.8-23.6 14.4l-2.1 10.2c11.1-2.9 22-9.4 31.2-18.6 24-24 27.6-56.6 8.4-75.8-5-5-11.2-8.5-18.2-10.2l-2.2 10.6c4.8 1.7 9.2 4.3 12.7 7.9 7 7 10.7 15.8 10.7 25.6z"/><path d="M176.4 81c.5-6.1-1.5-11.7-5.5-15.8-.7-.7-1.5-1.4-2.4-2l-8.5 41.5c2.7-1.5 5.2-3.5 7.5-5.7 5.2-5.2 8.4-11.6 8.9-18zM16.6 154.5c-1.7-4.3-3.2-8.8-4.4-13.3L7 166.7h15.4c-2.2-3.9-4.1-8-5.8-12.2zM33.4 108c0-16.3 3.7-32.9 11-49.2C52 41.9 63.1 26.1 77.3 11.9 81.5 7.7 85.9 3.8 90.4.2H66.7c-1 .9-1.9 1.8-2.8 2.8C50.7 16.1 40 30.4 31.8 45.5l-16.7 81.6c1.2 8.8 3.4 17.3 6.6 25.3 2 5 4.3 9.7 7 14.3h24.7c-5.5-6.9-9.9-14.6-13.2-22.8-4.5-11.2-6.8-23.3-6.8-35.9zm15.3 85.4c-.9 4.2-3.5 6.8-6.4 6.8-1.8 0-3.5-.8-3.5-3 0-.5.1-1.2.2-1.7l2.2-10.7h-2L37 195.5c-.1.8-.2 1.4-.2 1.9 0 3.2 2.2 4.5 5 4.5 2.5 0 4.6-1.5 5.9-3.5h.1l-.6 3h1.9l3.4-16.5h-2zM6.5 180.5h13.1l.4-1.9H4.7L0 201.5h15.6l.4-1.9H2.6l1.8-9h12.2l.4-1.9H4.8zm28.4-1.9l-1.9 9.5h-.1c-.8-2.6-2.8-3.6-5.4-3.6-5.5 0-9 5.7-8.9 10.7 0 4 2.1 6.8 6.3 6.8 2.9 0 4.6-1.3 6-3.5h.1l-.7 3h1.9l4.7-22.9zm-9.8 21.6c-3 0-4.5-2.1-4.5-4.9 0-4 2.3-9.2 7-9.2 2.9 0 4.6 1.9 4.7 4.8 0 4.1-2.5 9.3-7.2 9.3zM79.9 99.6v2.4h12.5c-.2-1.9-.3-3.8-.3-5.8 0-11.4 3.4-23 9.8-33.5H90.1c-6.7 11.8-10.2 24.4-10.2 36.9zm55.9-36.9h-10.2c-8.3 9.1-13 20.1-13 30.5 0 3.1.4 6 1.2 8.8h9.8c-1.7-3.4-2.6-7.2-2.6-11.2 0-8.8 4-17.7 11.4-25 1.1-1.2 2.2-2.2 3.4-3.1zM97.6 96.2c0 2 .1 3.9.3 5.8H108c-.7-2.8-1-5.8-1-8.8 0-6.2 1.4-12.5 4.1-18.7 1.8-4.2 4.2-8.1 7.2-11.8h-10c-6.8 10.4-10.7 22.1-10.7 33.5z"/><path d="M188.6 122.1c-10.7 10.7-23.4 17.8-36.3 20.7l-2.3 11c16.7-3.3 33.3-12.2 46.2-25.2 14.7-14.7 24.2-32.5 26.8-50.2.5-3.2.7-6.4.7-9.4v-2.2c-.5-14.4-6.2-27.3-16.6-37.7-7.8-7.8-17.7-12.6-28.5-14.5L176 26.8c8.1 2 15.2 6 21 11.8 21.4 21.3 17.8 57.3-8.4 83.5z"/><path d="M211 25.1c7.4 7.4 12.7 16 15.6 25.6.1.3.2.6.2.8l2.6-12.7h7.4C233.3 30 228 22 221.1 15 214.4 8.3 206.4 3.3 197.6.1h-16.1l-1.8 9c2.6.5 5.2 1.1 7.7 1.8 9 2.9 17 7.7 23.6 14.2zm31.6 13.8h18.8c-3.6-14.5-10.6-27.7-20.8-38.7h-30.1c5.3 3 10.1 6.7 14.4 11 8.1 8 14 17.3 17.7 27.7zm-89.9-12.6l2.4-11.6c-16.1 2.8-32.6 11-46.4 24.2h15c9-6.5 18.9-10.8 29-12.6zm-1.2 5.8c-6 1.3-11.9 3.6-17.6 6.8h16.2zM62 95.2c-2.1 22.6 5.1 43.4 20.4 58.6 5.4 5.4 11.8 9.8 19 12.9h22.5l1.4-6.8c-13-2-24.4-7.7-33.4-16.7-4.7-4.7-8.5-10-11.3-16H67.4l5.1-25.3h1.9v-2.4c0-12.5 3.3-25 9.4-36.9h-3.2L85 41C71.8 57.8 63.7 76.6 62 95.2z"/><path d="M132.1 127.3h-21.4c5.6 5.1 12.1 8.6 19.3 10.3zm-69.3 58.9c2.4 0 4.1 1.5 4 3.9h2c.1-3.8-2.6-5.6-6.2-5.6-5.7 0-8.9 5.5-8.9 10.7 0 4.1 2.3 6.8 6.4 6.8 4 0 6.5-2.1 7.7-5.8h-2c-.8 2.4-2.7 4.1-5.4 4.1-3.1 0-4.6-2.2-4.7-5.1 0-4.4 2.2-9 7.1-9zm66-43.3c-8.8-2-16.7-6.4-23.3-13-.9-.9-1.7-1.8-2.5-2.7H86.7c2.4 4.4 5.4 8.5 9 12.1 8.3 8.3 18.7 13.4 30.7 15.2zm28.6 58.6h2l3.4-16.6h-2zm38-21.6h-2l-1 5h-3l-.4 1.7h3l-2.2 11c-.2.7-.2 1.4-.2 1.7 0 2 1.6 2.4 3.1 2.4.7 0 1.4-.1 2.1-.1l.3-1.8c-.8.1-1.6.2-2.4.2-.8 0-1.1-.6-1.1-1.2 0-.5 0-.8.2-1.6l2.2-10.6h3.4l.3-1.7h-3.3zm-31.3-1.3h-2l-.7 3.2h2zm39.1-11.9l3.8-18.4c-8.2 7.4-17.3 13.6-27.1 18.4zm-28.8 18h-1.1c-2.9 0-4.7 1.7-5.9 4h-.1l.8-3.8h-1.8l-3.4 16.5h2l1.8-8.6c.6-3.1 2.5-6 6.1-6.1h1.2zm7.2 1.4c2.3 0 4.1 1.1 3.9 3.6h2c0-3.8-2.5-5.3-5.9-5.3-2.7 0-6.1 1.3-6.1 4.5 0 2.7 2.3 3.7 4.5 4.6 2.2.8 4.5 1.5 4.5 3.7 0 2.1-2.3 3-4.1 3-2.3 0-4.7-1-4.7-4.2h-2c-.1 4.1 3.1 5.8 6.3 5.8 3.1 0 6.6-1.4 6.6-5.1 0-3-3.1-4-5.4-4.9-1.9-.7-3.5-1.5-3.5-3.1-.2-2 2.2-2.6 3.9-2.6zm60-117.1h-12.4c0 3.4-.2 6.8-.7 10.2-1.4 9.8-4.9 19.7-10 29.1h12.4c5.4-10.6 8.9-21.7 10.2-32.7.2-2.3.4-4.5.5-6.6zM273.9.2h-26c9.4 11.3 15.9 24.4 19.2 38.7h20.1c-1.2-8.6-3.4-16.9-6.6-24.8-1.9-4.9-4.1-9.5-6.7-13.9zm6.4 0c2.1 3.8 3.9 7.8 5.5 11.9 2 4.9 3.6 10 4.8 15.3L296.1.2zM263.9 69h-16.7c-.1 2.4-.3 4.8-.6 7.3-1.3 10.8-4.6 21.6-9.6 32h17c5-11.6 8.3-23.6 9.5-35.5.2-1.3.3-2.6.4-3.8zm5.1 4.3c-1.2 11.7-4.3 23.5-9 34.9h12.7l7.9-39.3h-11.2c-.1 1.5-.2 3-.4 4.4zm-120.2 86.3l-1.5 7.1h18.5c15.2-5.5 29.6-14.5 41.3-26.2.6-.6 1.2-1.2 1.7-1.8l4.6-22.4c-3.8 5.7-8.3 11.1-13.4 16.2-14.2 14.4-32.7 24-51.2 27.1zm-47.8 19l-.7 3.2h2l.7-3.2zm-4.7 22.9h2l3.4-16.6h-2.1zM85 188.1c0-2.9-3.5-3.7-5.8-3.7-3.6 0-6.4 1.7-6.9 5.4h2c.4-2.8 2.6-3.7 5.2-3.7 1.5 0 3.5.4 3.5 2.4 0 2.2-.6 2.9-1.9 3.2-1.3.3-3.1.2-5.3.5-2.9.5-5.7 1.6-5.7 5.1 0 3.2 2.3 4.6 5.3 4.6 2.3 0 4.6-1.1 5.7-3v1c0 1.1.6 1.8 1.8 1.8.5 0 1.2-.1 1.7-.2l.3-1.6c-.3 0-.5.1-.8.1-.5 0-1.1-.1-1.1-.7 0-1 .3-1.9 1-5.6.3-1.5 1-4 1-5.6zm-3.3 7.3c-.6 2.9-2.7 4.8-5.9 4.8-1.9 0-3.7-.9-3.7-3 0-3.5 4-3.6 6.5-3.8 1-.1 3-.1 3.6-.9l.1.1zm65.1-14.9h12.5l.3-1.9H145l-4.7 22.9h2.2l2.2-10.9h11.1l.4-1.9h-11.1zm-35 4c-5.9 0-9.2 5.2-9.1 10.6 0 4.1 2.4 6.9 6.7 6.9 6.1 0 9.1-5.4 9.1-11-.1-4.1-2.8-6.5-6.7-6.5zm-2.1 15.7c-3.4 0-5-2.2-5-5.4 0-3.9 2.4-8.7 6.8-8.7 3.2 0 4.9 2.1 4.9 5.2.1 3.9-2.2 8.9-6.7 8.9zm26.6-130.6c-6.3 6.3-9.8 13.8-9.8 21.1 0 4.2 1.2 8.1 3.5 11.2h5.9l7.6-37.9c-2.6 1.5-5 3.4-7.2 5.6zm-6.2 114.9c-2.5 0-4.6 1.5-5.9 3.5l.5-3h-1.9l-3.4 16.5h2l1.7-8.5c.9-4.2 3.5-6.8 6.4-6.8 1.8 0 3.5.8 3.5 3 0 .5-.1 1.1-.2 1.7l-2.2 10.7h2l2.2-10.6c.2-.8.2-1.4.2-2 .1-3.3-2-4.5-4.9-4.5zm-36.2-4.6h-2l-1 5h-3l-.4 1.7h3l-2.2 10.9c-.1.7-.2 1.3-.2 1.7 0 2 1.6 2.4 3.1 2.4.7 0 1.4-.1 2-.1l.3-1.8c-.8.1-1.6.2-2.4.2-.8 0-1.1-.6-1.1-1.1 0-.5 0-.8.2-1.6l2.2-10.6h3.4l.3-1.7h-3.3z"/></svg>